<svg width="29" height="29" viewBox="0 0 29 29" fill="none" xmlns="http://www.w3.org/2000/svg">
<g filter="url(#filter0_d)">
<path fill-rule="evenodd" clip-rule="evenodd" d="M7 0H22C23.65 0 25 1.35 25 3V18C25 19.65 23.65 21 22 21H7C5.35 21 4 19.65 4 18V3C4 1.35 5.35 0 7 0ZM18 10.5C18 8.57 16.43 7 14.5 7C12.57 7 11 8.57 11 10.5C11 12.43 12.57 14 14.5 14C16.43 14 18 12.43 18 10.5ZM7 18V9H8.181C8.0626 9.49127 8.00186 9.99467 8 10.5C8 14.0899 10.9101 17 14.5 17C18.0899 17 21 14.0899 21 10.5C20.9986 9.99464 20.9379 9.49118 20.819 9H22V18H7ZM18 7H22V3H18V7Z" fill="white"/>
</g>
<defs>
<filter id="filter0_d" x="0" y="0" width="29" height="29" filterUnits="userSpaceOnUse" color-interpolation-filters="sRGB">
<feFlood flood-opacity="0" result="BackgroundImageFix"/>
<feColorMatrix in="SourceAlpha" type="matrix" values="0 0 0 0 0 0 0 0 0 0 0 0 0 0 0 0 0 0 127 0"/>
<feOffset dy="4"/>
<feGaussianBlur stdDeviation="2"/>
<feColorMatrix type="matrix" values="0 0 0 0 0 0 0 0 0 0 0 0 0 0 0 0 0 0 0.25 0"/>
<feBlend mode="normal" in2="BackgroundImageFix" result="effect1_dropShadow"/>
<feBlend mode="normal" in="SourceGraphic" in2="effect1_dropShadow" result="shape"/>
</filter>
</defs>
</svg>
